<?xml version="1.0" encoding="UTF-8"?>
<svg id="Ebene_1" data-name="Ebene 1" xmlns="http://www.w3.org/2000/svg" viewBox="0 0 788 788">
  <defs>
    <style>
      .cls-1 {
        fill: #ff4655;
      }

      .cls-2 {
        fill: #fff;
      }

      .cls-3 {
        opacity: .15;
      }
    </style>
  </defs>
  <rect class="cls-2" width="788" height="788" rx="133.5" ry="133.5"/>
  <g class="cls-3">
    <rect class="cls-1" x=".5" y=".5" width="787" height="787" rx="133" ry="133"/>
    <path d="M654.5,1c35.24,0,68.48,13.82,93.58,38.92s38.92,58.33,38.92,93.58v521c0,35.24-13.82,68.48-38.92,93.58-25.1,25.1-58.33,38.92-93.58,38.92H133.5c-35.24,0-68.48-13.82-93.58-38.92-25.1-25.1-38.92-58.33-38.92-93.58V133.5c0-35.24,13.82-68.48,38.92-93.58C65.02,14.82,98.26,1,133.5,1h521M654.5,0H133.5C60.08,0,0,60.07,0,133.5v521c0,73.42,60.08,133.5,133.5,133.5h521c73.43,0,133.5-60.08,133.5-133.5V133.5C788,60.07,727.93,0,654.5,0h0Z"/>
  </g>
  <g>
    <path class="cls-1" d="M194.9,267.21c0-9.68-3.42-17.12-10.25-22.3-6.84-5.18-19.14-10.65-36.91-16.41-17.77-5.75-31.85-11.42-42.21-17-28.26-15.27-42.38-35.83-42.38-61.69,0-13.44,3.79-25.43,11.37-35.97,7.58-10.54,18.46-18.77,32.64-24.69,14.18-5.92,30.1-8.89,47.77-8.89s33.61,3.22,47.51,9.66c13.9,6.44,24.7,15.52,32.39,27.26,7.69,11.74,11.54,25.07,11.54,39.99h-51.27c0-11.39-3.59-20.25-10.77-26.57s-17.26-9.48-30.25-9.48-22.28,2.65-29.22,7.95c-6.95,5.3-10.42,12.28-10.42,20.94,0,8.09,4.07,14.87,12.22,20.34,8.14,5.47,20.14,10.6,35.97,15.38,29.17,8.77,50.42,19.65,63.75,32.64s20,29.17,20,48.54c0,21.53-8.15,38.43-24.44,50.67-16.29,12.25-38.22,18.37-65.8,18.37-19.14,0-36.57-3.5-52.29-10.51s-27.71-16.6-35.97-28.8c-8.26-12.19-12.39-26.32-12.39-42.38h51.44c0,27.46,16.41,41.19,49.22,41.19,12.19,0,21.7-2.48,28.54-7.43s10.25-11.88,10.25-20.76Z"/>
    <path class="cls-1" d="M483.38,332.5h-51.27l-99.8-163.72v163.72h-51.27V83.67h51.27l99.98,164.06V83.67h51.1v248.83Z"/>
    <path class="cls-1" d="M725.03,301.05c-9.23,11.05-22.28,19.63-39.14,25.72-16.86,6.09-35.55,9.14-56.05,9.14-21.53,0-40.42-4.7-56.65-14.1-16.23-9.4-28.77-23.04-37.6-40.93-8.83-17.89-13.36-38.91-13.59-63.06v-16.92c0-24.84,4.19-46.34,12.56-64.51,8.38-18.17,20.45-32.07,36.23-41.7,15.78-9.63,34.27-14.44,55.46-14.44,29.51,0,52.58,7.04,69.21,21.11,16.63,14.07,26.49,34.55,29.57,61.44h-49.9c-2.28-14.24-7.32-24.67-15.12-31.27-7.8-6.61-18.54-9.91-32.21-9.91-17.43,0-30.71,6.55-39.82,19.65-9.12,13.1-13.73,32.59-13.84,58.45v15.89c0,26.09,4.96,45.8,14.87,59.13s24.44,20,43.58,20,32.98-4.1,41.19-12.3v-42.9h-46.66v-37.77h97.92v99.29Z"/>
  </g>
  <g>
    <path d="M179.13,473.96h-73.12v49.51h85.82v30.6h-123.91v-184.84h123.65v30.85h-85.57v44.05h73.12v29.83Z"/>
    <path d="M203.63,484.37c0-21.41,4.8-38.47,14.41-51.16,9.6-12.7,22.74-19.04,39.42-19.04,13.37,0,24.42,4.99,33.13,14.98v-70.08h36.82v195h-33.13l-1.78-14.6c-9.14,11.43-20.91,17.14-35.29,17.14-16.17,0-29.14-6.37-38.91-19.11-9.78-12.74-14.66-30.45-14.66-53.13ZM240.32,487.1c0,12.89,2.24,22.76,6.73,29.63,4.48,6.87,11,10.3,19.55,10.3,11.34,0,19.34-4.79,23.99-14.37v-54.29c-4.57-9.58-12.48-14.37-23.74-14.37-17.69,0-26.53,14.37-26.53,43.1Z"/>
    <path d="M355.6,381.16c0-5.5,1.84-10.03,5.52-13.58s8.7-5.33,15.04-5.33,11.25,1.78,14.98,5.33c3.72,3.55,5.59,8.08,5.59,13.58s-1.88,10.16-5.65,13.71c-3.77,3.55-8.74,5.33-14.92,5.33s-11.15-1.78-14.92-5.33c-3.77-3.55-5.65-8.12-5.65-13.71ZM394.57,554.07h-36.82v-137.36h36.82v137.36Z"/>
    <path d="M468.71,382.93v33.77h23.49v26.91h-23.49v68.55c0,5.08.97,8.72,2.92,10.92,1.95,2.2,5.67,3.3,11.17,3.3,4.06,0,7.66-.29,10.79-.89v27.8c-7.19,2.2-14.6,3.3-22.22,3.3-25.73,0-38.85-12.99-39.36-38.97v-74.01h-20.06v-26.91h20.06v-33.77h36.69Z"/>
    <path d="M503.12,484.12c0-13.62,2.62-25.77,7.87-36.44,5.25-10.66,12.8-18.92,22.66-24.76,9.86-5.84,21.31-8.76,34.34-8.76,18.54,0,33.66,5.67,45.39,17.01,11.72,11.34,18.26,26.75,19.61,46.21l.25,9.39c0,21.07-5.88,37.98-17.65,50.72-11.76,12.74-27.55,19.11-47.35,19.11s-35.61-6.35-47.42-19.04-17.71-29.96-17.71-51.8v-1.65ZM539.81,486.72c0,13.05,2.45,23.04,7.36,29.94,4.91,6.91,11.93,10.36,21.07,10.36s15.83-3.41,20.82-10.24c4.99-6.82,7.49-17.74,7.49-32.74,0-12.8-2.5-22.72-7.49-29.75-5-7.03-12.02-10.55-21.07-10.55s-15.91,3.5-20.82,10.49c-4.91,7-7.36,17.82-7.36,32.49Z"/>
    <path d="M733.03,451.11c-5-.68-9.39-1.02-13.2-1.02-13.88,0-22.98,4.7-27.29,14.09v89.88h-36.69v-137.36h34.66l1.02,16.38c7.36-12.61,17.56-18.92,30.6-18.92,4.06,0,7.87.55,11.43,1.65l-.51,35.29Z"/>
  </g>
  <g>
    <path d="M157.59,657.52c-.38,8.75-2.54,15.7-6.49,20.84-3.95,5.14-9.25,7.72-15.92,7.72-2.94,0-5.48-.63-7.61-1.9-2.14-1.26-3.75-3.08-4.85-5.43-3.42,4.79-7.88,7.18-13.38,7.18-4.99,0-8.85-2.1-11.59-6.31-2.73-4.21-3.76-9.76-3.08-16.66.62-5.64,2.04-10.66,4.28-15.05,2.24-4.39,5.07-7.77,8.48-10.12,3.42-2.36,7.11-3.54,11.07-3.54,4.89,0,9.06,1.13,12.51,3.38l3.23,2.21-2.61,29.63c-.34,2.7-.04,4.77.9,6.2.94,1.44,2.44,2.15,4.49,2.15,3.14,0,5.78-1.84,7.9-5.51,2.12-3.67,3.28-8.48,3.49-14.43.58-11.93-1.82-21.1-7.2-27.51-5.38-6.41-13.36-9.61-23.92-9.61-6.6,0-12.48,1.67-17.64,5.02-5.16,3.35-9.23,8.11-12.2,14.28-2.97,6.17-4.65,13.24-5.02,21.2-.55,12.1,1.88,21.46,7.28,28.07,5.4,6.61,13.48,9.92,24.25,9.92,2.84,0,5.81-.32,8.92-.95,3.11-.63,5.79-1.48,8.05-2.54l1.95,7.9c-2.09,1.37-4.9,2.47-8.43,3.31-3.54.84-7.1,1.26-10.69,1.26-9.02,0-16.71-1.82-23.07-5.46-6.36-3.64-11.1-9.01-14.23-16.1-3.13-7.09-4.49-15.56-4.08-25.4.41-9.43,2.56-17.89,6.46-25.38s9.2-13.27,15.92-17.35c6.72-4.08,14.29-6.13,22.74-6.13s15.96,1.84,22.15,5.51c6.19,3.67,10.82,8.93,13.89,15.77s4.43,14.78,4.05,23.84ZM106.07,662.95c-.38,4.51.02,7.94,1.18,10.28,1.16,2.34,3.04,3.51,5.64,3.51,1.67,0,3.26-.74,4.77-2.21,1.5-1.47,2.75-3.59,3.74-6.36l2.15-24.25c-1.33-.44-2.7-.67-4.1-.67-3.93,0-6.98,1.67-9.15,5.02-2.17,3.35-3.58,8.24-4.23,14.66Z"/>
    <path d="M171.64,685v-44.6h-8.25v-10.87h8.25v-4.72c0-6.22,1.79-11.05,5.36-14.48,3.57-3.44,8.57-5.15,15-5.15,2.05,0,4.56.34,7.54,1.03l-.15,11.48c-1.23-.31-2.73-.46-4.51-.46-5.57,0-8.36,2.61-8.36,7.84v4.46h11.02v10.87h-11.02v44.6h-14.87Z"/>
    <path d="M229.52,686.03c-8.14,0-14.76-2.49-19.87-7.49-5.11-4.99-7.67-11.64-7.67-19.94v-1.44c0-5.57,1.08-10.55,3.23-14.94,2.15-4.39,5.2-7.78,9.15-10.15,3.95-2.38,8.45-3.56,13.51-3.56,7.59,0,13.56,2.39,17.92,7.18,4.36,4.79,6.54,11.57,6.54,20.35v6.05h-35.32c.48,3.62,1.92,6.53,4.33,8.72,2.41,2.19,5.46,3.28,9.15,3.28,5.71,0,10.17-2.07,13.38-6.2l7.28,8.15c-2.22,3.15-5.23,5.6-9.02,7.36s-8,2.64-12.61,2.64ZM227.83,640.45c-2.94,0-5.32,1-7.15,2.99-1.83,1.99-3,4.84-3.51,8.55h20.61v-1.18c-.07-3.3-.96-5.84-2.67-7.65-1.71-1.8-4.14-2.7-7.28-2.7Z"/>
    <path d="M258.59,656.85c0-8.51,2.02-15.36,6.08-20.56,4.05-5.2,9.51-7.79,16.38-7.79,6.08,0,10.82,2.08,14.2,6.25l.62-5.23h13.43v53.63c0,4.85-1.1,9.07-3.31,12.66-2.21,3.59-5.31,6.32-9.31,8.2-4,1.88-8.68,2.82-14.05,2.82-4.07,0-8.03-.81-11.89-2.44-3.86-1.62-6.79-3.72-8.77-6.28l6.56-9.02c3.69,4.13,8.17,6.2,13.43,6.2,3.93,0,6.99-1.05,9.18-3.15,2.19-2.1,3.28-5.08,3.28-8.95v-2.97c-3.42,3.86-7.91,5.79-13.48,5.79-6.67,0-12.06-2.61-16.18-7.82-4.12-5.21-6.18-12.12-6.18-20.74v-.62ZM273.41,657.96c0,5.03,1.01,8.98,3.02,11.84,2.02,2.86,4.78,4.29,8.31,4.29,4.51,0,7.74-1.69,9.69-5.08v-23.36c-1.98-3.39-5.18-5.08-9.59-5.08-3.56,0-6.35,1.46-8.38,4.37-2.03,2.91-3.05,7.26-3.05,13.04Z"/>
    <path d="M349.49,659.01h-28.86v-11.95h28.86v11.95Z"/>
    <path d="M411.38,657.78c0,8.89-1.9,15.82-5.69,20.79-3.79,4.97-9.09,7.46-15.89,7.46-6.02,0-10.82-2.31-14.41-6.92l-.67,5.9h-13.33v-78.75h14.82v28.25c3.42-4,7.91-6,13.48-6,6.77,0,12.07,2.49,15.92,7.46,3.84,4.97,5.77,11.97,5.77,20.99v.82ZM396.56,656.7c0-5.61-.89-9.7-2.67-12.28-1.78-2.58-4.43-3.87-7.95-3.87-4.72,0-7.96,1.93-9.74,5.79v21.89c1.81,3.9,5.09,5.85,9.84,5.85s7.93-2.36,9.43-7.08c.72-2.26,1.08-5.69,1.08-10.3Z"/>
    <path d="M453.72,679.36c-3.66,4.44-8.72,6.67-15.18,6.67-5.95,0-10.49-1.71-13.61-5.13-3.13-3.42-4.73-8.42-4.79-15.02v-36.35h14.82v35.88c0,5.78,2.63,8.67,7.9,8.67s8.48-1.75,10.36-5.24v-39.32h14.87v55.47h-13.95l-.41-5.64Z"/>
    <path d="M529.24,657.78c0,8.89-1.9,15.82-5.69,20.79-3.79,4.97-9.09,7.46-15.89,7.46-6.02,0-10.82-2.31-14.41-6.92l-.67,5.9h-13.33v-78.75h14.82v28.25c3.42-4,7.91-6,13.48-6,6.77,0,12.07,2.49,15.92,7.46,3.84,4.97,5.77,11.97,5.77,20.99v.82ZM514.43,656.7c0-5.61-.89-9.7-2.67-12.28-1.78-2.58-4.43-3.87-7.95-3.87-4.72,0-7.96,1.93-9.74,5.79v21.89c1.81,3.9,5.09,5.85,9.84,5.85s7.93-2.36,9.43-7.08c.72-2.26,1.08-5.69,1.08-10.3Z"/>
    <path d="M538.27,615.17c0-2.22.74-4.05,2.23-5.49,1.49-1.44,3.51-2.15,6.08-2.15s4.54.72,6.05,2.15,2.26,3.26,2.26,5.49-.76,4.1-2.28,5.54c-1.52,1.44-3.53,2.15-6.02,2.15s-4.5-.72-6.02-2.15c-1.52-1.44-2.28-3.28-2.28-5.54ZM554.01,685h-14.87v-55.47h14.87v55.47Z"/>
    <path d="M586.36,662.75l-5.33,5.33v16.92h-14.82v-78.75h14.82v43.63l2.87-3.69,14.2-16.66h17.79l-20.05,23.12,21.79,32.35h-17.02l-14.25-22.25Z"/>
    <path d="M619.99,656.75c0-5.5,1.06-10.41,3.18-14.71,2.12-4.31,5.17-7.64,9.15-10,3.98-2.36,8.6-3.54,13.87-3.54,7.49,0,13.59,2.29,18.33,6.87,4.73,4.58,7.37,10.8,7.92,18.66l.1,3.79c0,8.51-2.38,15.34-7.13,20.48-4.75,5.14-11.12,7.72-19.12,7.72s-14.38-2.56-19.15-7.69c-4.77-5.13-7.15-12.1-7.15-20.92v-.67ZM634.81,657.8c0,5.27.99,9.3,2.97,12.09,1.98,2.79,4.82,4.19,8.51,4.19s6.39-1.38,8.41-4.13c2.02-2.76,3.02-7.16,3.02-13.22,0-5.17-1.01-9.17-3.02-12.01-2.02-2.84-4.85-4.26-8.51-4.26s-6.43,1.41-8.41,4.24c-1.98,2.83-2.97,7.2-2.97,13.12Z"/>
    <path d="M695.31,629.53l.46,6.41c3.96-4.96,9.28-7.43,15.94-7.43,5.88,0,10.25,1.73,13.12,5.18s4.34,8.61,4.41,15.48v35.84h-14.82v-35.48c0-3.14-.68-5.43-2.05-6.84-1.37-1.42-3.64-2.13-6.82-2.13-4.17,0-7.3,1.78-9.38,5.33v39.12h-14.82v-55.47h13.95Z"/>
  </g>
</svg>